<svg xmlns="http://www.w3.org/2000/svg" width="40.994" height="35.691" viewBox="0 0 40.994 35.691">
  <g id="Group_146" data-name="Group 146" transform="translate(151.029 -163.166)">
    <g id="Group_141" data-name="Group 141" transform="translate(-118.718 184.882)">
      <rect id="Rectangle_108" data-name="Rectangle 108" width="6.04" height="1.726" transform="matrix(0.866, -0.5, 0.5, 0.866, 0, 3.02)" fill="#1654a8"/>
    </g>
    <g id="Group_142" data-name="Group 142" transform="translate(-116.13 189.365)">
      <rect id="Rectangle_109" data-name="Rectangle 109" width="6.04" height="1.726" transform="matrix(0.866, -0.5, 0.5, 0.866, 0, 3.02)" fill="#1654a8"/>
    </g>
    <g id="Group_143" data-name="Group 143" transform="translate(-126.54 185.228)">
      <path id="Path_3" data-name="Path 3" d="M-117.465,202.361a3.453,3.453,0,0,1-2.994-1.725l-1.726-2.989a3.429,3.429,0,0,1-.345-2.62,3.427,3.427,0,0,1,1.609-2.1l1.981-1.144a3.41,3.41,0,0,1,1.324-1.761l2.242-1.294,6.041,10.463-2.242,1.294a3.387,3.387,0,0,1-2.187.266l-1.981,1.144A3.432,3.432,0,0,1-117.465,202.361Zm1.458-11.271-.747.431a2.069,2.069,0,0,0-.633,1.067l-.092.346-2.579,1.492a1.712,1.712,0,0,0-.8,1.048,1.717,1.717,0,0,0,.173,1.31l1.726,2.989a1.715,1.715,0,0,0,1.048.8,1.716,1.716,0,0,0,1.31-.173l2.582-1.491.349.1a2.067,2.067,0,0,0,1.237-.016l.747-.431Z" transform="translate(122.65 -188.732)" fill="#1654a8"/>
    </g>
    <g id="Group_144" data-name="Group 144" transform="translate(-151.029 163.166)">
      <path id="Path_4" data-name="Path 4" d="M-131.642,197.513a19.847,19.847,0,0,1-17.1-9.755,16.456,16.456,0,0,1-1.745-12.559,16.458,16.458,0,0,1,7.647-10.113,13.818,13.818,0,0,1,10.546-1.464,13.814,13.814,0,0,1,8.491,6.42,11.716,11.716,0,0,1-4.17,16.018,9.759,9.759,0,0,1-4.392,1.342l-.1-1.722a8.081,8.081,0,0,0,3.623-1.107,9.991,9.991,0,0,0,3.555-13.656,12.106,12.106,0,0,0-7.438-5.625,12.1,12.1,0,0,0-9.237,1.283,14.741,14.741,0,0,0-6.851,9.059,14.745,14.745,0,0,0,1.562,11.251,18.1,18.1,0,0,0,22.463,7.537l.664,1.592A19.521,19.521,0,0,1-131.642,197.513Z" transform="translate(151.029 -163.166)" fill="#1654a8"/>
    </g>
    <g id="Group_145" data-name="Group 145" transform="translate(-143.834 167.4)">
      <path id="Path_5" data-name="Path 5" d="M-138.3,189.815a.862.862,0,0,1-.322-.063.861.861,0,0,1-.526-.954l1.288-7.133-3.849.548a.859.859,0,0,1-.852-.394.862.862,0,0,1,.011-.938l8.262-12.424a.864.864,0,0,1,1.041-.323.863.863,0,0,1,.527.954L-134,176.222l3.849-.548a.86.86,0,0,1,.852.394.863.863,0,0,1-.011.938l-8.263,12.424A.861.861,0,0,1-138.3,189.815Zm1.5-10.035a.864.864,0,0,1,.621.264.862.862,0,0,1,.228.752l-.759,4.207,4.888-7.35-3.126.444a.865.865,0,0,1-.743-.255.862.862,0,0,1-.227-.752l.759-4.207-4.888,7.35,3.126-.445A.963.963,0,0,1-136.8,179.78Z" transform="translate(142.691 -168.073)" fill="#1654a8"/>
    </g>
  </g>
</svg>
