<svg xmlns="http://www.w3.org/2000/svg" width="55.118" height="37.894" viewBox="0 0 55.118 37.894"><g transform="translate(88.001 -210.027)"><g transform="translate(-88.001 210.027)"><path d="M-43.217,245.624a3.452,3.452,0,0,1-3.249-2.3H-58.145v-2.3h13.78v1.148a1.149,1.149,0,0,0,1.148,1.148,1.149,1.149,0,0,0,1.148-1.148v-1.148h1.543c2.65-.784,5.346-5.874,5.346-13.205s-2.7-12.42-5.346-13.205h-1.543v-1.148a1.15,1.15,0,0,0-1.148-1.148,1.15,1.15,0,0,0-1.148,1.148v1.148H-76.518v-1.148a1.15,1.15,0,0,0-1.148-1.148,1.15,1.15,0,0,0-1.148,1.148v1.148h-1.544c-2.649.784-5.345,5.874-5.345,13.205s2.7,12.422,5.345,13.205h1.544v1.148a1.149,1.149,0,0,0,1.148,1.148,1.149,1.149,0,0,0,1.148-1.148v-1.148h13.78v2.3H-74.418a3.452,3.452,0,0,1-3.249,2.3,3.451,3.451,0,0,1-3.274-2.37c-4.1-1.148-7.061-7.59-7.061-15.428s2.96-14.279,7.061-15.427a3.453,3.453,0,0,1,3.274-2.371,3.452,3.452,0,0,1,3.249,2.3h27.952a3.452,3.452,0,0,1,3.249-2.3,3.453,3.453,0,0,1,3.274,2.371c4.1,1.149,7.061,7.591,7.061,15.427s-2.96,14.279-7.061,15.428A3.451,3.451,0,0,1-43.217,245.624Z" transform="translate(88.001 -210.027)" fill="#1654a8"/></g><g transform="translate(-81.111 213.472)"><rect width="2" height="28" transform="translate(0.11 0.448)" fill="#1654a8"/></g><g transform="translate(-42.069 213.472)"><rect width="2" height="28" transform="translate(0.068 0.448)" fill="#1654a8"/></g><g transform="translate(-70.777 219.213)"><path d="M-64.963,246.734h-2.3A5.748,5.748,0,0,1-73,240.993v-1.148h6.89v-5.313a8.584,8.584,0,0,1-5.167-7.892,8.622,8.622,0,0,1,8.612-8.612,8.622,8.622,0,0,1,8.612,8.612,8.584,8.584,0,0,1-5.167,7.892v6.461A5.748,5.748,0,0,1-64.963,246.734Zm-5.545-4.593a3.452,3.452,0,0,0,3.249,2.3h2.3a3.448,3.448,0,0,0,3.445-3.445V232.9l.795-.256a6.3,6.3,0,0,0,4.373-6.009,6.323,6.323,0,0,0-6.316-6.316,6.323,6.323,0,0,0-6.316,6.316,6.3,6.3,0,0,0,4.373,6.009l.795.256v9.237Z" transform="translate(73.001 -218.027)" fill="#1654a8"/></g><g transform="translate(-61.59 223.807)"><rect width="3" height="8" transform="translate(-0.411 0.114)" fill="#1654a8"/></g></g></svg>