<svg xmlns="http://www.w3.org/2000/svg" width="67.809" height="81.305" viewBox="0 0 67.809 81.305"><g transform="translate(119.778 -260.381)"><g transform="translate(-119.778 260.381)"><path d="M-85.874,341.686a1.729,1.729,0,0,1-.436-.058c-1.8-.478-33.469-17.227-33.469-33.825V275.594a1.7,1.7,0,0,1,1.7-1.7c7.722,0,28.139-9,30.843-12.843a1.758,1.758,0,0,1,2.77,0c2.624,3.726,22.155,12.843,30.806,12.843a1.7,1.7,0,0,1,1.7,1.7v33.9c0,13.748-31.979,31.733-33.469,32.129A1.709,1.709,0,0,1-85.874,341.686Zm-30.514-64.5V307.8c0,12.719,25.5,28.149,30.5,30.363,4.4-2.109,30.526-18.269,30.526-28.668V277.2c-9.047-.858-25.052-7.94-30.5-12.726C-91.448,269.318-108,276.267-116.388,277.188Z" transform="translate(119.778 -260.381)" fill="#1654a8"/></g><g transform="translate(-100.035 278.985)"><path d="M-103.007,317.577l2.078-20.794h-7.2l7.823-25.428h17.261l-5.086,13.562h11.253Zm-.534-24.184h6.359l-1.31,13.112,14.559-18.2h-9.091l5.086-13.562H-97.8Z" transform="translate(108.132 -271.355)" fill="#1654a8"/></g></g></svg>